<svg height="512pt" viewBox="-1 0 512 512" width="512pt" xmlns="http://www.w3.org/2000/svg"><path d="m494.738281 0h-479.5c-8.414062 0-15.238281 6.824219-15.238281 15.238281v188.953125c0 8.414063 6.824219 15.238282 15.238281 15.238282h479.5c8.414063 0 15.238281-6.824219 15.238281-15.238282v-188.953125c0-8.414062-6.824218-15.238281-15.238281-15.238281zm-464.261719 30.476562h89.398438v158.476563h-89.398438zm119.875 0h89.398438v158.476563h-89.398438zm119.875 0h89.398438v158.476563h-89.398438zm209.273438 158.476563h-89.398438v-158.476563h89.398438zm0 0"/><path d="m151.710938 370.792969c-8.414063 0-15.238282 6.824219-15.238282 15.238281v25.734375c0 8.417969 6.824219 15.238281 15.238282 15.238281 8.414062 0 15.238281-6.820312 15.238281-15.238281v-25.734375c0-8.414062-6.820313-15.238281-15.238281-15.238281zm0 0"/><path d="m233.65625 370.792969c-8.414062 0-15.238281 6.824219-15.238281 15.238281v25.734375c0 8.417969 6.824219 15.238281 15.238281 15.238281 8.417969 0 15.238281-6.820312 15.238281-15.238281v-25.734375c0-8.414062-6.820312-15.238281-15.238281-15.238281zm0 0"/><path d="m416.515625 427.003906c8.414063 0 15.238281-6.820312 15.238281-15.238281v-25.734375c0-8.414062-6.824218-15.238281-15.238281-15.238281-8.417969 0-15.238281 6.824219-15.238281 15.238281v25.734375c0 8.417969 6.820312 15.238281 15.238281 15.238281zm0 0"/><path d="m175.75 148.316406c-7.972656 0-15.609375 7.007813-15.238281 15.238282.367187 8.257812 6.695312 15.238281 15.238281 15.238281 7.96875 0 15.605469-7.007813 15.234375-15.238281-.367187-8.253907-6.691406-15.238282-15.234375-15.238282zm0 0"/><path d="m415.5 178.792969c7.96875 0 15.605469-7.007813 15.234375-15.238281-.367187-8.253907-6.695313-15.238282-15.234375-15.238282-7.972656 0-15.609375 7.007813-15.238281 15.238282.367187 8.257812 6.691406 15.238281 15.238281 15.238281zm0 0"/><path d="m334.226562 148.316406c-7.96875 0-15.605468 7.007813-15.238281 15.238282.371094 8.257812 6.699219 15.238281 15.238281 15.238281 7.972657 0 15.609376-7.007813 15.238282-15.238281-.367188-8.253907-6.695313-15.238282-15.238282-15.238282zm0 0"/><path d="m94.476562 148.316406c-7.96875 0-15.605468 7.007813-15.238281 15.238282.371094 8.257812 6.699219 15.238281 15.238281 15.238281 7.972657 0 15.609376-7.007813 15.238282-15.238281-.367188-8.253907-6.691406-15.238282-15.238282-15.238282zm0 0"/><path d="m481.199219 269.207031h-452.421875c-15.867188 0-28.777344 12.910157-28.777344 28.777344v198.777344c0 8.414062 6.824219 15.238281 15.238281 15.238281h479.5c8.414063 0 15.238281-6.824219 15.238281-15.238281v-198.777344c0-15.867187-12.910156-28.777344-28.777343-28.777344zm-450.722657 30.476563h449.023438v23.363281h-449.023438zm0 53.839844h149.335938v128h-149.335938zm179.8125 0h149.335938v128h-149.335938zm269.210938 128h-89.398438v-128h89.398438zm0 0"/></svg>