<svg id="Capa_1" enable-background="new 0 0 512 512" height="512" viewBox="0 0 512 512" width="512" xmlns="http://www.w3.org/2000/svg"><g><path d="m504.5 306.87h-28.287v-49.492c0-8.511-6.925-15.436-15.436-15.436h-27.177c-8.511 0-15.436 6.924-15.436 15.436v49.492h-20.788v-51.122c0-26.016-21.166-47.182-47.182-47.182h-36.393c-4.143 0-7.5 3.358-7.5 7.5s3.357 7.5 7.5 7.5h36.393c17.745 0 32.182 14.437 32.182 32.182v89.058h-25.186v-19.984c0-12.307-10.013-22.319-22.319-22.319h-42.581c-12.307 0-22.319 10.013-22.319 22.319v19.984h-27.941v-19.984c0-12.307-10.013-22.319-22.319-22.319h-42.581c-12.307 0-22.319 10.013-22.319 22.319v19.984h-25.187v-89.058c0-17.745 14.438-32.182 32.183-32.182h122.01c4.143 0 7.5-3.358 7.5-7.5s-3.357-7.5-7.5-7.5h-122.01c-26.017 0-47.183 21.166-47.183 47.182v51.122h-20.788v-49.492c0-8.511-6.925-15.436-15.436-15.436h-27.176c-8.512 0-15.437 6.924-15.437 15.436v49.492h-28.287c-4.143 0-7.5 3.357-7.5 7.5v92.491c0 4.143 3.357 7.5 7.5 7.5h72.172v11.444h-15.423c-4.143 0-7.5 3.357-7.5 7.5v40.245c0 4.143 3.357 7.5 7.5 7.5h278.059c4.143 0 7.5-3.357 7.5-7.5s-3.357-7.5-7.5-7.5h-270.559v-25.245h368.503v25.245h-67.957c-4.143 0-7.5 3.357-7.5 7.5s3.357 7.5 7.5 7.5h75.457c4.143 0 7.5-3.357 7.5-7.5v-40.245c0-4.143-3.357-7.5-7.5-7.5h-15.423v-11.444h72.171c4.143 0 7.5-3.357 7.5-7.5v-92.491c0-4.142-3.357-7.5-7.5-7.5zm-71.335-49.492c0-.24.195-.436.436-.436h27.177c.24 0 .436.195.436.436v49.492h-28.048v-49.492zm-148.194 67.444c0-4.036 3.283-7.319 7.319-7.319h42.581c4.036 0 7.319 3.283 7.319 7.319v19.984h-57.22v-19.984zm-115.161 0c0-4.036 3.283-7.319 7.319-7.319h42.581c4.036 0 7.319 3.283 7.319 7.319v19.984h-57.22v-19.984zm-119.023-67.444c0-.24.196-.436.437-.436h27.176c.24 0 .436.195.436.436v49.492h-28.049zm-35.787 141.984v-77.492h99.623v22.936h-.427c-19.037 0-34.524 15.487-34.524 34.524v20.031h-64.672zm79.672 26.444v-46.476c0-10.766 8.759-19.524 19.524-19.524h283.608c10.766 0 19.524 8.759 19.524 19.524v46.476zm402.328-26.444h-64.671v-20.032c0-19.037-15.487-34.524-34.524-34.524h-.428v-22.936h99.623z"/><path d="m331.699 83.992v72.999c0 7.297 5.936 13.233 13.232 13.233h70c7.297 0 13.233-5.937 13.233-13.233v-112.809c0-7.297-5.937-13.233-13.233-13.233h-70c-7.297 0-13.232 5.937-13.232 13.233v39.712zm15 71.232v-61.88c21.571 5.63 38.562 15.098 51.736 28.81 4.628 4.816 9.579 9.418 14.729 13.751v19.319zm66.466-109.275v69.754c-1.328-1.296-2.634-2.61-3.913-3.941-15.934-16.585-36.448-27.695-62.553-33.872v-31.941z"/><path d="m207.768 83.994v72.997c0 7.297 5.937 13.233 13.233 13.233h69.999c7.297 0 13.233-5.937 13.233-13.233v-112.809c0-7.297-5.937-13.233-13.233-13.233h-69.999c-7.297 0-13.233 5.937-13.233 13.233v39.74c-.001.024 0 .048 0 .072zm15 71.23v-65.54c18.371-5.021 34.57-6.792 48.194-5.242 5.606.637 11.769 1.039 18.271 1.411v69.372h-66.465zm66.465-109.275v24.879c-5.965-.345-11.586-.723-16.578-1.29-14.73-1.674-31.13-.153-49.888 4.627v-28.216z"/><path d="m283.815 261.567h-55.631c-4.143 0-7.5 3.357-7.5 7.5s3.357 7.5 7.5 7.5h55.631c4.143 0 7.5-3.357 7.5-7.5s-3.357-7.5-7.5-7.5z"/><path d="m97.069 170.224h69.999c7.297 0 13.233-5.937 13.233-13.233v-112.809c0-7.297-5.937-13.233-13.233-13.233h-69.999c-7.297 0-13.233 5.937-13.233 13.233v29.199c0 4.142 3.357 7.5 7.5 7.5s7.5-3.358 7.5-7.5v-27.432h66.466v51.935c-5.936 2.837-12.089 5.898-18.373 9.151-18.781 9.725-35.624 12.896-48.093 13.575v-17.241c0-4.142-3.357-7.5-7.5-7.5s-7.5 3.358-7.5 7.5v53.622c0 7.297 5.936 13.233 13.233 13.233zm56.758-49.869c3.883-2.011 7.716-3.948 11.475-5.801v40.671h-66.466v-19.587c14.216-.677 33.56-4.185 54.991-15.283z"/><path d="m72.169 344.806h-14.715c-4.143 0-7.5 3.357-7.5 7.5s3.357 7.5 7.5 7.5h14.715c4.143 0 7.5-3.357 7.5-7.5s-3.357-7.5-7.5-7.5z"/><path d="m454.547 344.806h-14.716c-4.143 0-7.5 3.357-7.5 7.5s3.357 7.5 7.5 7.5h14.716c4.143 0 7.5-3.357 7.5-7.5s-3.358-7.5-7.5-7.5z"/></g></svg>