<svg id="Layer_1" height="512" viewBox="0 0 512 512" width="512" xmlns="http://www.w3.org/2000/svg" data-name="Layer 1"><path d="m339.8 33.188h-169.373a8.009 8.009 0 0 0 -8 8v382.224a8.009 8.009 0 0 0 8 8h169.373a8.009 8.009 0 0 0 8-8v-382.224a8.009 8.009 0 0 0 -8-8zm-4 386.224h-161.373v-374.224h161.373z"/><path d="m107.843 253.937a6 6 0 0 0 -6 6v231.651c0 5.741 4.3 10.412 9.594 10.412h289.126c5.29 0 9.594-4.671 9.594-10.412v-231.651a6 6 0 0 0 -12 0v19.347l-29.178-.027v-259.257a10.011 10.011 0 0 0 -10-10h-207.731a10.011 10.011 0 0 0 -10 10v259.189l-27.4.044v-19.3a6 6 0 0 0 -6.005-5.996zm45.405-231.937h203.731v422.389h-203.731zm-12 269.189v155.2a10.012 10.012 0 0 0 10 10h207.731a10.012 10.012 0 0 0 10-10v-155.132l29.178.027v198.716h-284.314v-198.766z"/><path d="m227.694 173.478a5.986 5.986 0 0 0 4.289-1.8l54.252-55.431a6 6 0 0 0 -8.577-8.394l-54.251 55.43a6 6 0 0 0 4.287 10.2z"/><path d="m280.062 149.083-28.305 28.306a6 6 0 1 0 8.486 8.484l28.305-28.306a6 6 0 1 0 -8.486-8.484z"/></svg>